<svg id="Calque_1" data-name="Calque 1" xmlns="http://www.w3.org/2000/svg" viewBox="0 0 215.99 102.64"><defs><style>.cls-1{font-size:36px;fill:#fff;font-family:FolioStd-Medium, Folio Std;font-weight:500;}.cls-2,.cls-3{fill:#50cd89;}.cls-3{stroke:#50cd89;stroke-miterlimit:10;stroke-width:4px;}</style></defs><text class="cls-1" transform="translate(83.34 47.93)">MONEY<tspan x="0" y="32">BRIDGE</tspan></text><path class="cls-2" d="M125.89,201.94a22.28,22.28,0,1,1,22.22-22.31A22.26,22.26,0,0,1,125.89,201.94Zm1.26-6.64c.82-1.44-.63-3.28,1.46-4.09a6.12,6.12,0,0,0,4.09-6,6.56,6.56,0,0,0-4-6.27,36.78,36.78,0,0,1-4-2,2.59,2.59,0,0,1-1.08-2.06,2.4,2.4,0,0,1,1.9-1.31,37.11,37.11,0,0,1,5.13.95c2-3.54,2-3.54-2.9-5.62l-.24-2.86h-4.14c.65,2.35-.38,3.44-2.22,4.57a5.86,5.86,0,0,0,0,9.89,34.08,34.08,0,0,0,4.29,2.22c1.33.66,2.62,1.44,2.14,3.19s-2.09,1.83-3.49,1.56a35.66,35.66,0,0,1-4.55-1.43c-2.16,3.94-2.16,3.94,3.62,6.1l.23,3.11Z" transform="translate(-86.13 -131.35)"/><path class="cls-3" d="M125.9,133.35a55.67,55.67,0,0,0,17.46,9.26,60.91,60.91,0,0,0,19.75,2.55c0,.84.09,1.47.09,2.11,0,9,.25,18-.06,26.95-.84,24.49-12,42.93-33.07,55.41-1.38.82-2.78,1.58-4.17,2.36h-.44c-7.78-4.13-14.95-9.07-20.81-15.74a63.88,63.88,0,0,1-16.47-42.71c-.11-9.34,0-18.68,0-28.37,13.85.42,26.38-3.24,37.3-11.82ZM157.59,151c-1-.16-1.68-.32-2.34-.37A57.75,57.75,0,0,1,126.79,141c-1.07-.71-1.67-.3-2.49.25a51,51,0,0,1-16.06,7.27c-4.66,1.13-9.41,1.84-14,2.71,0,9.41-.79,19,.16,28.48,2,20.12,12.66,35,30.06,45.16a2.77,2.77,0,0,0,2.34,0c14.9-8.45,24.69-20.84,28.92-37.53C158.78,175.35,156.87,163.19,157.59,151Z" transform="translate(-86.13 -131.35)"/></svg>