<svg id="Calque_1" data-name="Calque 1" xmlns="http://www.w3.org/2000/svg" viewBox="0 0 215.99 102.64"><defs><style>.cls-1{font-size:36px;font-family:FolioStd-Medium, Folio Std;font-weight:500;}.cls-1,.cls-2,.cls-3{fill:#fff;}.cls-2{stroke:#fff;stroke-miterlimit:10;stroke-width:4px;}.cls-4{fill:#3e97ff;}</style></defs><text class="cls-1" transform="translate(83.34 47.93)">MONEY<tspan x="0" y="32">BRIDGE</tspan></text><path class="cls-2" d="M125.9,133.35a55.67,55.67,0,0,0,17.46,9.26,60.91,60.91,0,0,0,19.75,2.55c0,.84.09,1.47.09,2.11,0,9,.25,18-.06,26.95-.84,24.49-12,42.93-33.07,55.41-1.38.82-2.78,1.58-4.17,2.36h-.44c-7.78-4.13-14.95-9.07-20.81-15.74a63.88,63.88,0,0,1-16.47-42.71c-.11-9.34,0-18.68,0-28.37,13.85.42,26.38-3.24,37.3-11.82ZM157.59,151c-1-.16-1.68-.32-2.34-.37A57.75,57.75,0,0,1,126.79,141c-1.07-.71-1.67-.3-2.49.25a51,51,0,0,1-16.06,7.27c-4.66,1.13-9.41,1.84-14,2.71,0,9.41-.79,19,.16,28.48,2,20.12,12.66,35,30.06,45.16a2.77,2.77,0,0,0,2.34,0c14.9-8.45,24.69-20.84,28.92-37.53C158.78,175.35,156.87,163.19,157.59,151Z" transform="translate(-86.13 -131.35)"/><circle class="cls-3" cx="39.65" cy="47.93" r="23.68"/><path class="cls-4" d="M127.42,193.89c.82-1.44-.64-3.28,1.46-4.08a6.16,6.16,0,0,0,4.09-6,6.6,6.6,0,0,0-4-6.27,35,35,0,0,1-4-2,2.56,2.56,0,0,1-1.08-2.06,2.36,2.36,0,0,1,1.89-1.32,38.8,38.8,0,0,1,5.14.95c2-3.54,2-3.54-2.9-5.62l-.25-2.86h-4.13c.64,2.35-.38,3.44-2.22,4.58a5.85,5.85,0,0,0,0,9.88,33.54,33.54,0,0,0,4.3,2.22c1.32.67,2.61,1.45,2.13,3.19s-2.09,1.83-3.49,1.57a37.33,37.33,0,0,1-4.55-1.43c-2.15,3.93-2.15,3.93,3.62,6.1l.23,3.1Z" transform="translate(-86.13 -131.35)"/></svg>