<svg id="Calque_1" data-name="Calque 1" xmlns="http://www.w3.org/2000/svg" viewBox="0 0 122.88 122.88"><defs><style>.cls-1{fill:#fefdfd;}.cls-2{fill:#eb6708;}.cls-3{fill:#0c5cac;}</style></defs><path class="cls-1" d="M236,482.77V359.89H358.88V482.77Zm64.59-6.44a16.83,16.83,0,0,0,1.74-.38A16,16,0,0,0,308,472.5c6.15-5.56,12.39-11,18.48-16.66,4.59-4.25,9.05-8.65,13.47-13.09,3.51-3.52,6.91-7.17,10.29-10.83,2.32-2.52,4.6-5.09,6.75-7.75a4.31,4.31,0,0,0-.06-6c-3.66-4.31-7.32-8.65-11.22-12.74-6.63-7-13.33-13.85-20.23-20.54-5.78-5.61-11.74-11.05-17.89-16.25-3.51-3-6.56-2.84-9.63-.22-8,6.82-15.92,13.66-23.93,20.43-7.76,6.57-15.58,13.07-23.38,19.59-3.85,3.22-7.78,6.36-11.57,9.65a5.6,5.6,0,0,0,.1,8.95c3.3,2.77,6.67,5.45,10,8.17,4.18,3.4,8.38,6.76,12.53,10.19q7.93,6.54,15.81,13.16c6.15,5.15,12.27,10.31,18.43,15.45C297.31,475.11,298.62,476.33,300.59,476.33Z" transform="translate(-236 -359.89)"/><path class="cls-2" d="M300.59,476.33c-2,0-3.28-1.22-4.62-2.34-6.16-5.14-12.28-10.3-18.43-15.45q-7.89-6.6-15.81-13.16c-4.15-3.43-8.35-6.79-12.53-10.19-3.34-2.72-6.71-5.4-10-8.17a5.6,5.6,0,0,1-.1-8.95c3.79-3.29,7.72-6.43,11.57-9.65,7.8-6.52,15.62-13,23.38-19.59,8-6.77,16-13.61,23.93-20.43,3.07-2.62,6.12-2.75,9.63.22,6.15,5.2,12.11,10.64,17.89,16.25,6.9,6.69,13.6,13.58,20.23,20.54,3.9,4.09,7.56,8.43,11.22,12.74a4.31,4.31,0,0,1,.06,6c-2.15,2.66-4.43,5.23-6.75,7.75-3.38,3.66-6.78,7.31-10.29,10.83-4.42,4.44-8.88,8.84-13.47,13.09-6.09,5.64-12.33,11.1-18.48,16.66a16,16,0,0,1-5.68,3.45A16.83,16.83,0,0,1,300.59,476.33Zm-39.27-55.09a6.8,6.8,0,0,1-.3-.66c-.82-2.87-1.68-5.72-2.42-8.61-.32-1.24-.88-1.81-2.22-1.64a17.55,17.55,0,0,1-3,0c-.77,0-1.1.19-1.21,1-.44,3.51-1,7-1.49,10.52-.47,3.35-.88,6.71-1.37,10.06-.12.88.19,1.15,1,1.12,1.16,0,2.32,0,3.47,0,.78,0,1.14-.2,1.25-1,.38-3.1.82-6.19,1.26-9.4.16.57.3,1,.43,1.55.4,1.58.76,3.17,1.2,4.73a1.23,1.23,0,0,0,.76.75c2.55.54,3.48.06,4.62-2.26.07-.14.12-.3.19-.44L266,422.4a.84.84,0,0,1,.14.63c-.53,2.94-1,5.87-1.59,8.8-.17.94.12,1.33,1.11,1.26a19,19,0,0,1,3.11,0c1.24.12,1.62-.46,1.71-1.56.12-1.55.29-3.1.51-4.63q1.13-7.74,2.29-15.48c.12-.79-.11-1.1-.92-1.08-1.27,0-2.56-.06-3.83,0a1.94,1.94,0,0,0-1.3.74c-.83,1.26-1.53,2.6-2.29,3.91C263.73,417.06,262.57,419.08,261.32,421.24Zm61.83,12.15a2.34,2.34,0,0,1-3.59,1.32c-1.57-.83-2.3-.24-3.09.9a4.78,4.78,0,0,1-.63.72c-.57.53-.48,1,.17,1.31a14.77,14.77,0,0,0,2.76,1.37c4.87,1.45,8.82-.89,9.75-5.94.58-3.17,1-6.38,1.39-9.57.32-2.28.6-4.55.92-7-1.52,0-2.9,0-4.28,0-.81,0-1.09.28-1.2,1.09-.44,3.43-1,6.86-1.42,10.29a1.21,1.21,0,0,1-1.41,1.23c-1.21,0-1.55-.5-1.32-2.19.44-3.07.89-6.15,1.42-9.21.17-1-.1-1.23-1-1.21-1.12,0-2.23,0-3.35,0-.67,0-1,.21-1.06.95-.42,3.35-.89,6.71-1.4,10.06a4.78,4.78,0,0,0,3.66,5.71A21,21,0,0,0,323.15,433.39Zm-25.95-.31h.72c2.21,0,2.17,0,2.41-2.23q.44-3.93,1.11-7.81c.53-3.12-.65-5.76-3.18-6.42a13.49,13.49,0,0,0-8.9.65,1.59,1.59,0,0,0-.73,1c-.28,1.33-.45,2.67-.65,4-.47,3.24-.91,6.47-1.39,9.7-.12.79.15,1.11,1,1.09,1.12,0,2.24,0,3.35,0a1,1,0,0,0,1.21-1c.41-3.24.87-6.48,1.26-9.72.11-.91.42-1.44,1.41-1.36s1.38.51,1.24,1.48c-.37,2.56-.77,5.12-1.09,7.69C294.52,433.51,294,433,297.2,433.08ZM287,421.45a14,14,0,0,0-.44-1.9c-.83-2.15-2.57-3-4.73-3.31-3.43-.46-7.56,1.51-8.31,5.07a58.67,58.67,0,0,0-1.08,6.95,4.83,4.83,0,0,0,.87,2.77c1.5,2.25,5.05,3,8,1.87,2-.74,3.77-1.85,4.33-4C286.25,426.49,286.52,423.94,287,421.45ZM307.29,427a31.49,31.49,0,0,0,3.37,0,5.7,5.7,0,0,0,5.21-5.45c.12-2.37-1.09-4.92-4.77-5.3-3.32-.34-7.15,1.35-8.06,4.78a47.24,47.24,0,0,0-1.17,7.41,4.1,4.1,0,0,0,2,3.75,8.23,8.23,0,0,0,9.67-.75c.24-.22.57-.74.49-.84a14,14,0,0,0-2.06-2.28c-.2-.16-.89.24-1.35.41C308.86,429.33,307.1,428.67,307.29,427Zm-28.48-19.87a11.64,11.64,0,0,1,.63,1.16c.29.74.57,1.48.79,2.24s.7.93,1.44,1a1.36,1.36,0,0,0,1.51-1c.39-1.08.82-2.15,1.23-3.23l.29.08c0,.46,0,.92,0,1.39-.05,1.19-.09,2.38-.19,3.57-.08.91.31,1.24,1.18,1.15a3.84,3.84,0,0,1,.83,0c1,.12,1.34-.22,1.33-1.25-.06-3.59-.05-7.18,0-10.77,0-.95-.27-1.34-1.22-1.2a3.78,3.78,0,0,1-.95,0c-.86-.12-1.28.25-1.58,1.06-.52,1.42-1.17,2.79-1.79,4.17a9.75,9.75,0,0,1-.7,1.12c-.63-1.41-1.16-2.61-1.69-3.81l-.18-.44c-1-2.51-.65-2.07-3.4-2.06-.26,0-.72.51-.72.78q-.08,5.81,0,11.61c0,.26.44.63.75.75a5.82,5.82,0,0,0,1.19,0c1,.13,1.33-.27,1.28-1.27C278.76,410.53,278.81,408.91,278.81,407.12Zm21.88-.49c0,.79,0,1.59,0,2.39a3.81,3.81,0,0,0,1.69,3.39,6.45,6.45,0,0,0,6.8.49,4.18,4.18,0,0,0,2.51-4.14c0-1.23,0-2.47,0-3.71,0-2.51-1-3.95-3.25-4.72a6.61,6.61,0,0,0-6.75,1.4C300.37,403.22,300.76,405,300.69,406.63Zm-.83.14.19,0c-.2-1.4-.09-3-.69-4.17-1.65-3.34-7.55-3.52-9.69-.43-1.07,1.55-1.13,7.59-.08,9.15a3.47,3.47,0,0,0,.3.37c1.61,1.91,3.74,2.1,6,1.75a4.42,4.42,0,0,0,4-4.61C299.87,408.13,299.86,407.45,299.86,406.77Zm32.32,14.67,0,.25c1.81-.53,3.63-1,5.42-1.58s3.62-1.29,5.47-2c.53,2.64,1,5.09,1.51,7.55a1.06,1.06,0,0,1-.86,1.42c-3.37,1-6.72,2-10.09,2.93-1,.29-2.08.47-3.12.7l.06.41c1.9-.15,3.8-.27,5.69-.44a32.86,32.86,0,0,0,10.27-2.62,1.26,1.26,0,0,0,.6-1c-.44-2.75-.95-5.49-1.47-8.23-.29-1.54-.63-3.07-.9-4.39Zm-20.74-21.3c-.05.26-.1.35-.07.41,1.43,4,2.88,8,4.29,12,.46,1.33,1.53.63,2.33.79s1.08-.16,1.33-.86c1-2.94,2.11-5.85,3.15-8.77.41-1.15.77-2.3,1.2-3.58a17.49,17.49,0,0,0-2.64,0A1.54,1.54,0,0,0,320,401c-.76,2.51-1.41,5.05-2.11,7.58a5.46,5.46,0,0,1-.36.79,3.59,3.59,0,0,1-.31-.54c-.69-2.54-1.35-5.08-2.1-7.59a1.72,1.72,0,0,0-1-1.07A14.32,14.32,0,0,0,311.44,400.14Zm35,29.57-15.12,2.41a4.8,4.8,0,0,0,1.31.38c4.18-.1,8.37-.13,12.54-.43C347.26,431.92,347.28,431.6,346.46,429.71Zm-15.06,3.38-.07.27a3.76,3.76,0,0,0,1,.48c2.34.44,4.68,1,7,1.2a51.26,51.26,0,0,0,6.32,0c1.25,0,.82-1,.79-1.7s-.38-.87-1-.71a36.65,36.65,0,0,1-13,.48C332.06,433.06,331.73,433.09,331.4,433.09Z" transform="translate(-236 -359.89)"/><path class="cls-1" d="M261.32,421.24c1.25-2.16,2.41-4.18,3.57-6.2.76-1.31,1.46-2.65,2.29-3.91a1.94,1.94,0,0,1,1.3-.74c1.27-.1,2.56,0,3.83,0,.81,0,1,.29.92,1.08q-1.17,7.74-2.29,15.48c-.22,1.53-.39,3.08-.51,4.63-.09,1.1-.47,1.68-1.71,1.56a19,19,0,0,0-3.11,0c-1,.07-1.28-.32-1.11-1.26.55-2.93,1.06-5.86,1.59-8.8a.84.84,0,0,0-.14-.63L263.52,427c-.07.14-.12.3-.19.44-1.14,2.32-2.07,2.8-4.62,2.26a1.23,1.23,0,0,1-.76-.75c-.44-1.56-.8-3.15-1.2-4.73-.13-.5-.27-1-.43-1.55-.44,3.21-.88,6.3-1.26,9.4-.11.83-.47,1.06-1.25,1-1.15,0-2.31,0-3.47,0-.83,0-1.14-.24-1-1.12.49-3.35.9-6.71,1.37-10.06.49-3.51,1.05-7,1.49-10.52.11-.85.44-1.08,1.21-1a17.55,17.55,0,0,0,3,0c1.34-.17,1.9.4,2.22,1.64.74,2.89,1.6,5.74,2.42,8.61A6.8,6.8,0,0,0,261.32,421.24Z" transform="translate(-236 -359.89)"/><path class="cls-1" d="M323.15,433.39a21,21,0,0,1-3.68-.22,4.78,4.78,0,0,1-3.66-5.71c.51-3.35,1-6.71,1.4-10.06.09-.74.39-1,1.06-.95,1.12,0,2.23,0,3.35,0,.9,0,1.17.25,1,1.21-.53,3.06-1,6.14-1.42,9.21-.23,1.69.11,2.19,1.32,2.19a1.21,1.21,0,0,0,1.41-1.23c.44-3.43,1-6.86,1.42-10.29.11-.81.39-1.12,1.2-1.09,1.38,0,2.76,0,4.28,0-.32,2.49-.6,4.76-.92,7-.44,3.19-.81,6.4-1.39,9.57-.93,5.05-4.88,7.39-9.75,5.94a14.77,14.77,0,0,1-2.76-1.37c-.65-.34-.74-.78-.17-1.31a4.78,4.78,0,0,0,.63-.72c.79-1.14,1.52-1.73,3.09-.9A2.34,2.34,0,0,0,323.15,433.39Z" transform="translate(-236 -359.89)"/><path class="cls-1" d="M297.2,433.08c-3.21-.05-2.68.43-2.28-2.9.32-2.57.72-5.13,1.09-7.69.14-1-.32-1.41-1.24-1.48s-1.3.45-1.41,1.36c-.39,3.24-.85,6.48-1.26,9.72a1,1,0,0,1-1.21,1c-1.11,0-2.23,0-3.35,0-.8,0-1.07-.3-1-1.09.48-3.23.92-6.46,1.39-9.7.2-1.34.37-2.68.65-4a1.59,1.59,0,0,1,.73-1,13.49,13.49,0,0,1,8.9-.65c2.53.66,3.71,3.3,3.18,6.42q-.68,3.88-1.11,7.81c-.24,2.19-.2,2.23-2.41,2.23Z" transform="translate(-236 -359.89)"/><path class="cls-1" d="M287,421.45c-.43,2.49-.7,5-1.35,7.49-.56,2.11-2.34,3.22-4.33,4-3,1.12-6.51.38-8-1.87a4.83,4.83,0,0,1-.87-2.77,58.67,58.67,0,0,1,1.08-6.95c.75-3.56,4.88-5.53,8.31-5.07,2.16.29,3.9,1.16,4.73,3.31A14,14,0,0,1,287,421.45Zm-5.75,1.86c.1-1.76,0-2-.83-2.17-1-.18-1.65.28-1.85,1.5-.28,1.61-.49,3.22-.65,4.84a1.15,1.15,0,0,0,1.76,1.15,2.76,2.76,0,0,0,1-1.59C281,425.68,281.07,424.29,281.2,423.31Z" transform="translate(-236 -359.89)"/><path class="cls-1" d="M307.29,427c-.19,1.68,1.57,2.34,3.31,1.71.46-.17,1.15-.57,1.35-.41a14,14,0,0,1,2.06,2.28c.08.1-.25.62-.49.84a8.23,8.23,0,0,1-9.67.75,4.1,4.1,0,0,1-2-3.75A47.24,47.24,0,0,1,303,421c.91-3.43,4.74-5.12,8.06-4.78,3.68.38,4.89,2.93,4.77,5.3a5.7,5.7,0,0,1-5.21,5.45A31.49,31.49,0,0,1,307.29,427Zm1.2-3.14c1.58,0,2.29-.76,2.29-1.91,0-.87-.45-1.22-1.25-1.19a2,2,0,0,0-1.73,2.38C307.83,423.45,308.37,423.73,308.49,423.85Z" transform="translate(-236 -359.89)"/><path class="cls-3" d="M278.81,407.12c0,1.79-.05,3.41,0,5,.05,1-.28,1.4-1.28,1.27a5.82,5.82,0,0,1-1.19,0c-.31-.12-.75-.49-.75-.75q-.08-5.81,0-11.61c0-.27.46-.78.72-.78,2.75,0,2.43-.45,3.4,2.06l.18.44c.53,1.2,1.06,2.4,1.69,3.81a9.75,9.75,0,0,0,.7-1.12c.62-1.38,1.27-2.75,1.79-4.17.3-.81.72-1.18,1.58-1.06a3.78,3.78,0,0,0,.95,0c.95-.14,1.24.25,1.22,1.2,0,3.59,0,7.18,0,10.77,0,1-.37,1.37-1.33,1.25a3.84,3.84,0,0,0-.83,0c-.87.09-1.26-.24-1.18-1.15.1-1.19.14-2.38.19-3.57,0-.47,0-.93,0-1.39l-.29-.08c-.41,1.08-.84,2.15-1.23,3.23a1.36,1.36,0,0,1-1.51,1c-.74,0-1.22-.19-1.44-1s-.5-1.5-.79-2.24A11.64,11.64,0,0,0,278.81,407.12Z" transform="translate(-236 -359.89)"/><path class="cls-3" d="M300.68,406.63c.08-1.68-.31-3.41,1-4.9a6.61,6.61,0,0,1,6.75-1.4c2.24.77,3.23,2.21,3.25,4.72,0,1.24,0,2.48,0,3.71a4.18,4.18,0,0,1-2.51,4.14,6.45,6.45,0,0,1-6.8-.49,3.81,3.81,0,0,1-1.69-3.39C300.71,408.22,300.69,407.42,300.68,406.63Zm7.66.12c0-.6,0-1.19,0-1.79,0-1.38-.65-2-2.11-2s-2.24.61-2.29,2c0,1.11,0,2.22,0,3.34,0,1.57.69,2.23,2.28,2.21s2.11-.59,2.12-2.2Z" transform="translate(-236 -359.89)"/><path class="cls-3" d="M299.86,406.77c0,.68,0,1.36,0,2a4.42,4.42,0,0,1-4,4.61c-2.26.35-4.39.16-6-1.75a3.47,3.47,0,0,1-.3-.37c-1-1.56-1-7.6.08-9.15,2.14-3.09,8-2.91,9.69.43.6,1.21.49,2.77.69,4.17Zm-7.59,0c0,.67,0,1.35,0,2,0,1.19.67,1.69,2.1,1.7s2.18-.49,2.21-1.72,0-2.55,0-3.83-.77-1.93-2.18-1.94-2.12.64-2.15,2C292.26,405.53,292.27,406.13,292.27,406.73Z" transform="translate(-236 -359.89)"/><path class="cls-1" d="M332.18,421.44l12.62-7c.27,1.32.61,2.85.9,4.39.52,2.74,1,5.48,1.47,8.23a1.26,1.26,0,0,1-.6,1,32.86,32.86,0,0,1-10.27,2.62c-1.89.17-3.79.29-5.69.44l-.06-.41c1-.23,2.09-.41,3.12-.7,3.37-1,6.72-2,10.09-2.93a1.06,1.06,0,0,0,.86-1.42c-.5-2.46-1-4.91-1.51-7.55-1.85.67-3.65,1.36-5.47,2s-3.61,1.05-5.42,1.58Z" transform="translate(-236 -359.89)"/><path class="cls-3" d="M311.44,400.14a14.32,14.32,0,0,1,2.63.05,1.72,1.72,0,0,1,1,1.07c.75,2.51,1.41,5.05,2.1,7.59a3.59,3.59,0,0,0,.31.54,5.46,5.46,0,0,0,.36-.79c.7-2.53,1.35-5.07,2.11-7.58a1.54,1.54,0,0,1,1.08-.81,17.49,17.49,0,0,1,2.64,0c-.43,1.28-.79,2.43-1.2,3.58-1,2.92-2.13,5.83-3.15,8.77-.25.7-.65,1-1.33.86s-1.87.54-2.33-.79c-1.41-4-2.86-8-4.29-12C311.34,400.49,311.39,400.4,311.44,400.14Z" transform="translate(-236 -359.89)"/><path class="cls-1" d="M346.46,429.71c.82,1.89.8,2.21-1.27,2.36-4.17.3-8.36.33-12.54.43a4.8,4.8,0,0,1-1.31-.38Z" transform="translate(-236 -359.89)"/><path class="cls-1" d="M331.4,433.09c.33,0,.66,0,1,0a36.65,36.65,0,0,0,13-.48c.66-.16,1,0,1,.71s.46,1.66-.79,1.7a51.26,51.26,0,0,1-6.32,0c-2.36-.22-4.7-.76-7-1.2a3.76,3.76,0,0,1-1-.48Z" transform="translate(-236 -359.89)"/><path class="cls-2" d="M281.2,423.31c-.13,1-.23,2.37-.53,3.73a2.76,2.76,0,0,1-1,1.59,1.15,1.15,0,0,1-1.76-1.15c.16-1.62.37-3.23.65-4.84.2-1.22.84-1.68,1.85-1.5C281.17,421.29,281.3,421.55,281.2,423.31Z" transform="translate(-236 -359.89)"/><path class="cls-2" d="M308.49,423.85c-.12-.12-.66-.4-.69-.72a2,2,0,0,1,1.73-2.38c.8,0,1.25.32,1.25,1.19C310.78,423.09,310.07,423.82,308.49,423.85Z" transform="translate(-236 -359.89)"/><path class="cls-2" d="M308.34,406.75v1.55c0,1.61-.56,2.18-2.12,2.2s-2.27-.64-2.28-2.21c0-1.12,0-2.23,0-3.34.05-1.37.81-2,2.29-2s2.09.61,2.11,2C308.35,405.56,308.34,406.15,308.34,406.75Z" transform="translate(-236 -359.89)"/><path class="cls-2" d="M292.27,406.73c0-.6,0-1.2,0-1.8,0-1.32.75-2,2.15-2s2.17.67,2.18,1.94,0,2.55,0,3.83-.69,1.73-2.21,1.72-2.06-.51-2.1-1.7C292.25,408.08,292.27,407.4,292.27,406.73Z" transform="translate(-236 -359.89)"/></svg>