<svg xmlns="http://www.w3.org/2000/svg"  viewBox="0 0 100 100" width="100px" height="100px"><path fill="#7878ab" d="M22.603,31.337L22.603,31.337c-0.187-0.008-0.376-0.012-0.565-0.012	c-5.404,0-10.524,2.716-12.947,7.966c-0.995,2.157-0.947,4.392-1.073,6.708c-0.075,1.389,0,28.001,0,28.001h9.996	c0,0-0.027-31.314,0-32c0.197-4.921,2.096-8.015,4.587-10.648c8.259,0.006,15.032,5.209,15.329,14.241	c0.068,2.074,0,28.406,0,28.406h10.083c0,0,0-29.907-0.024-32.932c0-8.81-6.998-15.193-15.065-15.193	C28.197,25.875,24.814,28.538,22.603,31.337z"/><path fill="#1f212b" d="M48.015,75H37.932c-0.266,0-0.521-0.105-0.708-0.294c-0.188-0.188-0.293-0.443-0.292-0.709	c0.001-0.263,0.066-26.339,0.001-28.371c-0.258-7.795-5.822-13.081-13.899-13.269c-1.925,2.102-3.828,4.92-4.02,9.683	c-0.021,0.643-0.009,21.187,0.001,31.959c0,0.266-0.105,0.521-0.293,0.708S18.28,75,18.015,75H8.019c-0.551,0-0.998-0.446-1-0.997	C7.016,72.915,6.944,47.347,7.02,45.945l0.046-0.961c0.089-2.006,0.18-4.081,1.118-6.112c2.434-5.271,7.742-8.547,13.855-8.547	c0.032,0,0.064,0,0.098,0c2.145-2.574,5.684-5.45,10.789-5.45c9.009,0,16.065,7.113,16.065,16.193	c0.023,2.986,0.023,32.633,0.023,32.932C49.015,74.553,48.567,75,48.015,75z M38.935,73h8.08c0-5.231-0.003-29.252-0.023-31.924	c0-7.967-6.179-14.201-14.065-14.201c-3.602,0-6.317,1.721-8.202,3.585c8.313,0.853,13.931,6.707,14.207,15.101	C38.991,47.422,38.946,68.098,38.935,73z M9.016,73h7.998c-0.005-5.955-0.023-30.4,0.002-31.04c0.176-4.388,1.69-7.371,3.356-9.545	C15.718,32.924,11.91,35.57,10,39.71c-0.774,1.675-0.853,3.466-0.937,5.362c-0.014,0.325-0.028,0.652-0.047,0.981	C8.961,47.092,8.99,63.584,9.016,73z"/><path fill="#7878ab" d="M92.015,54.984L92.015,54.984c0,2.379,0.008,4.592-1.073,6.708	c-2.474,4.846-7.543,7.966-12.947,7.966c-0.189,0-0.378-0.004-0.564-0.012c-2.657,2.792-6.182,4.422-10.323,4.422	c-7.667,0-13.12-7.749-13.12-15.47c0-2.942,0-32.098,0.015-32.564l10.013-0.003c0-0.174,0.029,26.812,0.096,28.886	c0.298,9.032,5.062,14.708,13.32,14.713c2.492-2.633,4.355-5.851,4.552-10.773c0.027-0.686,0-31.92,0-32.889h10.031	C92.015,26.938,92.015,53.305,92.015,54.984z"/><path fill="#1f212b" d="M67.107,75.068c-8.446,0-14.12-8.516-14.12-16.47c0-9.656,0.002-32.161,0.016-32.596	c0.017-0.54,0.459-0.969,0.999-0.969l10.013-0.003c0.001,0,0.002,0,0.004,0c0.238,0,0.995,0.091,0.996,1.192	c0.006,4.461,0.035,26.807,0.096,28.66c0.283,8.563,4.608,13.548,11.89,13.741c2.596-2.862,3.828-5.905,3.984-9.808	c0.015-0.462,0.015-10.854,0-30.883l-0.001-1.966c0-0.553,0.447-1,1-1h10.031c0.553,0,1,0.447,1,1v29.065	c0,2.467,0,4.798-1.182,7.112c-2.641,5.17-8.072,8.511-13.838,8.511c-0.052,0-0.103,0-0.154-0.001	C74.938,73.545,71.237,75.068,67.107,75.068z M54.998,27.034c-0.008,3.816-0.011,18.154-0.011,31.564	c0,6.988,4.87,14.47,12.12,14.47c2.947,0,5.643-0.893,7.909-2.602C67.8,69.453,63.404,63.813,63.112,54.95	c-0.059-1.765-0.088-20.856-0.097-27.919L54.998,27.034z M82.984,26.969v0.964C83,48.641,82.999,58.48,82.982,58.897	c-0.148,3.713-1.217,6.831-3.33,9.654c4.385-0.561,8.353-3.308,10.399-7.315c0.963-1.886,0.963-3.886,0.963-6.202V26.969H82.984z"/><path fill="#1f212b" d="M57.633,61.568c-0.231,0-0.439-0.162-0.488-0.398c-0.179-0.864-0.27-1.729-0.27-2.571	c0-10.547,0.002-22.518,0.007-28.565c0-0.276,0.224-0.5,0.5-0.5l0,0c0.276,0,0.5,0.225,0.5,0.5	c-0.005,6.048-0.007,18.019-0.007,28.565c0,0.773,0.084,1.57,0.248,2.368c0.057,0.271-0.117,0.535-0.388,0.591	C57.701,61.565,57.667,61.568,57.633,61.568z"/><path fill="#1f212b" d="M60.435,67.355c-0.141,0-0.28-0.059-0.379-0.174c-0.572-0.666-1.085-1.412-1.523-2.22	c-0.132-0.242-0.042-0.546,0.201-0.678c0.239-0.131,0.546-0.042,0.678,0.201c0.404,0.744,0.877,1.433,1.402,2.044	c0.181,0.21,0.156,0.525-0.053,0.705C60.666,67.315,60.55,67.355,60.435,67.355z"/><path fill="#1f212b" d="M66.348,70.547c-0.013,0-0.025,0-0.038-0.001c-1.525-0.113-2.971-0.643-4.297-1.574	c-0.227-0.159-0.281-0.471-0.122-0.696s0.473-0.28,0.696-0.122c1.177,0.826,2.454,1.296,3.797,1.395	c0.275,0.021,0.481,0.261,0.462,0.536C66.826,70.347,66.606,70.547,66.348,70.547z"/><path fill="#1f212b" d="M85.582,62.864c-0.141,0-0.28-0.059-0.379-0.174c-0.18-0.209-0.156-0.524,0.053-0.705	c0.826-0.712,1.517-1.512,2.05-2.376C88,58.487,88,57.018,88,54.983V35.957c0-0.276,0.224-0.5,0.5-0.5s0.5,0.224,0.5,0.5v19.026	c0,2.116,0,3.787-0.844,5.151c-0.587,0.951-1.344,1.829-2.248,2.608C85.814,62.824,85.698,62.864,85.582,62.864z"/><path d="M88.5,33.33c-0.276,0-0.5-0.224-0.5-0.5v-2.861c0-0.276,0.224-0.5,0.5-0.5s0.5,0.224,0.5,0.5v2.861	C89,33.106,88.776,33.33,88.5,33.33z"/><path fill="#1f212b" d="M44.458,70.5c-0.276,0-0.5-0.224-0.5-0.5c-0.001-6.158-0.005-26.445-0.024-28.928	c0-3.189-1.396-6.168-3.828-8.176c-0.213-0.176-0.243-0.491-0.067-0.704c0.176-0.215,0.492-0.243,0.704-0.067	c2.664,2.199,4.191,5.459,4.191,8.943c0.02,2.481,0.023,22.772,0.024,28.932C44.958,70.276,44.734,70.5,44.458,70.5z"/><path fill="#1f212b" d="M36.388,30.87c-0.047,0-0.095-0.007-0.143-0.021c-1.062-0.315-2.177-0.475-3.314-0.475l-0.128,0.002	c-0.004,0-0.008,0-0.011,0c-0.271,0-0.494-0.217-0.5-0.489c-0.006-0.276,0.214-0.505,0.489-0.511l0.149-0.002	c1.234,0,2.445,0.174,3.6,0.516c0.265,0.078,0.415,0.356,0.337,0.622C36.803,30.729,36.604,30.87,36.388,30.87z"/><path fill="#1f212b" d="M11.509,48.959c-0.001,0-0.002,0-0.002,0c-0.276-0.001-0.499-0.227-0.498-0.502	c0.006-1.23,0.015-2.043,0.027-2.283c0.014-0.275,0.249-0.488,0.525-0.473c0.276,0.015,0.487,0.25,0.473,0.525	c-0.013,0.236-0.02,1.031-0.025,2.234C12.008,48.736,11.784,48.959,11.509,48.959z"/><path fill="#1f212b" d="M11.527,70.5c-0.275,0-0.499-0.223-0.5-0.499c-0.02-6.854-0.034-13.808-0.024-18.585	c0.001-0.275,0.225-0.499,0.5-0.499h0.001c0.276,0.001,0.5,0.225,0.499,0.501c-0.01,4.775,0.005,11.727,0.024,18.581	C12.028,70.274,11.805,70.499,11.527,70.5L11.527,70.5z"/></svg>